<mxfile host="65bd71144e">
    <diagram id="i6Loe9nBS5HB4S2CcHqk" name="Page-1">
        <mxGraphModel dx="1857" dy="1182" grid="1" gridSize="10" guides="1" tooltips="1" connect="1" arrows="1" fold="1" page="1" pageScale="1" pageWidth="827" pageHeight="1169" math="0" shadow="0">
            <root>
                <mxCell id="0"/>
                <mxCell id="1" parent="0"/>
                <mxCell id="8" style="edgeStyle=none;html=1;entryX=0.063;entryY=-0.053;entryDx=0;entryDy=0;entryPerimeter=0;exitX=0.25;exitY=1;exitDx=0;exitDy=0;" edge="1" parent="1" source="2" target="7">
                    <mxGeometry relative="1" as="geometry"/>
                </mxCell>
                <mxCell id="9" value="produce:&lt;br&gt;task_created&lt;br&gt;task_finished&lt;br&gt;task_assigned" style="edgeLabel;html=1;align=center;verticalAlign=middle;resizable=0;points=[];" vertex="1" connectable="0" parent="8">
                    <mxGeometry x="0.0728" y="-1" relative="1" as="geometry">
                        <mxPoint as="offset"/>
                    </mxGeometry>
                </mxCell>
                <mxCell id="2" value="TaskTracker" style="swimlane;" parent="1" vertex="1">
                    <mxGeometry x="70" y="120" width="200" height="210" as="geometry"/>
                </mxCell>
                <mxCell id="19" value="table: tasks&lt;br&gt;assignee_id&lt;br&gt;title&lt;br&gt;finished:bool&lt;br&gt;cost:int&lt;br&gt;reward:int" style="shape=datastore;whiteSpace=wrap;html=1;" vertex="1" parent="2">
                    <mxGeometry x="10" y="40" width="110" height="140" as="geometry"/>
                </mxCell>
                <mxCell id="12" value="produce:&lt;br&gt;task_assessed" style="edgeStyle=none;html=1;exitX=0.25;exitY=0;exitDx=0;exitDy=0;entryX=0.06;entryY=1.023;entryDx=0;entryDy=0;entryPerimeter=0;" edge="1" parent="1" source="3" target="7">
                    <mxGeometry relative="1" as="geometry"/>
                </mxCell>
                <mxCell id="3" value="Accounting" style="swimlane;" parent="1" vertex="1">
                    <mxGeometry x="70" y="560" width="450" height="200" as="geometry"/>
                </mxCell>
                <mxCell id="14" value="table: tasks&lt;br&gt;assignee_id&lt;br&gt;title&lt;br&gt;finished:bool&lt;br&gt;cost:int&lt;br&gt;reward:int" style="shape=datastore;whiteSpace=wrap;html=1;" vertex="1" parent="3">
                    <mxGeometry x="10" y="40" width="110" height="140" as="geometry"/>
                </mxCell>
                <mxCell id="17" value="table:accounts&lt;br&gt;assignee_id&lt;br&gt;balance:int" style="shape=datastore;whiteSpace=wrap;html=1;" vertex="1" parent="3">
                    <mxGeometry x="140" y="40" width="110" height="140" as="geometry"/>
                </mxCell>
                <mxCell id="18" value="table:transactions&lt;br&gt;account_id&lt;br&gt;amount_cents:int&lt;br&gt;task_id" style="shape=datastore;whiteSpace=wrap;html=1;" vertex="1" parent="3">
                    <mxGeometry x="289" y="40" width="110" height="140" as="geometry"/>
                </mxCell>
                <mxCell id="4" value="Analytics" style="swimlane;" parent="1" vertex="1">
                    <mxGeometry x="560" y="560" width="200" height="200" as="geometry"/>
                </mxCell>
                <mxCell id="20" value="table:audit_logs&lt;br&gt;task_title&lt;br&gt;task_cost&lt;br&gt;task_reward&lt;br&gt;task_assignee_name&lt;br&gt;task_created_at" style="shape=datastore;whiteSpace=wrap;html=1;" vertex="1" parent="4">
                    <mxGeometry x="40" y="40" width="110" height="150" as="geometry"/>
                </mxCell>
                <mxCell id="6" value="PopugAuth" style="swimlane;" vertex="1" parent="1">
                    <mxGeometry x="440" y="120" width="200" height="200" as="geometry"/>
                </mxCell>
                <mxCell id="21" value="table:users&lt;br&gt;name&lt;br&gt;id" style="shape=datastore;whiteSpace=wrap;html=1;" vertex="1" parent="6">
                    <mxGeometry x="10" y="40" width="110" height="110" as="geometry"/>
                </mxCell>
                <mxCell id="10" value="consume:&lt;br&gt;task_appraised" style="edgeStyle=none;html=1;exitX=0.25;exitY=0;exitDx=0;exitDy=0;" edge="1" parent="1" source="7">
                    <mxGeometry relative="1" as="geometry">
                        <mxPoint x="240" y="330" as="targetPoint"/>
                    </mxGeometry>
                </mxCell>
                <mxCell id="13" value="consume:&lt;br&gt;task_created&lt;br&gt;task_finished&lt;br&gt;task_assigned" style="edgeStyle=none;html=1;exitX=0.25;exitY=1;exitDx=0;exitDy=0;entryX=0.852;entryY=-0.02;entryDx=0;entryDy=0;entryPerimeter=0;" edge="1" parent="1" source="7" target="3">
                    <mxGeometry relative="1" as="geometry">
                        <mxPoint x="240.45454545454538" y="550" as="targetPoint"/>
                    </mxGeometry>
                </mxCell>
                <mxCell id="22" value="consume:&lt;br&gt;task_finished&lt;br&gt;task_appraised" style="edgeStyle=none;html=1;exitX=0.75;exitY=1;exitDx=0;exitDy=0;entryX=0.341;entryY=-0.011;entryDx=0;entryDy=0;entryPerimeter=0;" edge="1" parent="1" source="7" target="4">
                    <mxGeometry relative="1" as="geometry"/>
                </mxCell>
                <mxCell id="7" value="Event bus (kafka)" style="rounded=0;whiteSpace=wrap;html=1;" vertex="1" parent="1">
                    <mxGeometry x="80" y="420" width="730" height="60" as="geometry"/>
                </mxCell>
            </root>
        </mxGraphModel>
    </diagram>
</mxfile>
